<?xml version="1.0" encoding="UTF-8"?>
<svg width="21px" height="25px" viewBox="0 0 21 25" version="1.1" xmlns="http://www.w3.org/2000/svg" xmlns:xlink="http://www.w3.org/1999/xlink">
    <!-- Generator: Sketch 52.4 (67378) - http://www.bohemiancoding.com/sketch -->
    <title>Group 967</title>
    <desc>Created with Sketch.</desc>
    <g id="Page-1" stroke="none" stroke-width="1" fill="none" fill-rule="evenodd">
        <g id="Group-967" transform="translate(1.000000, 1.000000)">
            <path d="M14,3 L2,3 C1.46957,3 0.96086,3.21071 0.58579,3.58579 C0.21071,3.96086 0,4.46957 0,5 L0,21 C0,21.5304 0.21071,22.0391 0.58579,22.4142 C0.96086,22.7893 1.46957,23 2,23 L14,23 C14.5304,23 15.0391,22.7893 15.4142,22.4142 C15.7893,22.0391 16,21.5304 16,21 L16,5 C16,3.89543 15.1046,3 14,3 Z" id="Path" stroke="#708598" stroke-width="1.5" stroke-linecap="round" stroke-linejoin="round"></path>
            <path d="M11.9999,13.0005 L3.99988,13.0005" id="Path" stroke="#708598" stroke-width="1.5" stroke-linecap="round" stroke-linejoin="round"></path>
            <path d="M11.9999,17 L3.99988,17" id="Path" stroke="#708598" stroke-width="1.5" stroke-linecap="round" stroke-linejoin="round"></path>
            <polyline id="Path" stroke="#708598" stroke-width="1.5" stroke-linecap="round" stroke-linejoin="round" points="8.99988 9 6.49988 9 3.99988 9"></polyline>
            <circle id="Oval" stroke="#FAFBFC" stroke-width="2" fill="#E92F2F" cx="15" cy="4" r="4"></circle>
        </g>
    </g>
</svg>